<svg width="360" height="243" viewBox="0 0 360 243" fill="none" xmlns="http://www.w3.org/2000/svg">
<g clip-path="url(#clip0_98_1233)">
<mask id="mask0_98_1233" style="mask-type:luminance" maskUnits="userSpaceOnUse" x="0" y="0" width="360" height="243">
<path d="M360 0H0V243H360V0Z" fill="white"/>
</mask>
<g mask="url(#mask0_98_1233)">
<path d="M291.295 203.596L97.5475 9.84924C89.3465 1.64823 76.05 1.64823 67.849 9.84924C59.648 18.0503 59.648 31.3467 67.849 39.5477L261.596 233.295C269.797 241.496 283.094 241.496 291.295 233.295C299.496 225.094 299.496 211.798 291.295 203.596Z" fill="white"/>
<path d="M261.596 9.84955L67.8492 203.597C59.6482 211.798 59.6482 225.094 67.8492 233.295C76.0503 241.496 89.3467 241.496 97.5477 233.295L291.295 39.548C299.496 31.347 299.496 18.0506 291.295 9.84955C283.094 1.64854 269.798 1.64853 261.596 9.84955Z" fill="white"/>
</g>
</g>
<defs>
<clipPath id="clip0_98_1233">
<rect width="360" height="243" fill="white"/>
</clipPath>
</defs>
</svg>
