<svg width="1842" height="875" viewBox="0 0 1842 875" fill="none" xmlns="http://www.w3.org/2000/svg">
<path d="M61 722.485V756H104.379M427.31 677H470V710.515" stroke="#00FF19" stroke-width="5"/>
<g style="mix-blend-mode:lighten">
<path d="M97.8239 711H94.6458L89.3304 702.953V711H86.1523V697.953H89.3304L94.6458 706.038V697.953H97.8239V711ZM113.639 711.13C112.413 711.13 111.285 710.845 110.257 710.275C109.241 709.705 108.429 708.912 107.822 707.896C107.227 706.868 106.93 705.716 106.93 704.439C106.93 703.163 107.227 702.017 107.822 701.001C108.429 699.985 109.241 699.192 110.257 698.622C111.285 698.052 112.413 697.767 113.639 697.767C114.866 697.767 115.987 698.052 117.003 698.622C118.032 699.192 118.837 699.985 119.419 701.001C120.014 702.017 120.311 703.163 120.311 704.439C120.311 705.716 120.014 706.868 119.419 707.896C118.825 708.912 118.019 709.705 117.003 710.275C115.987 710.845 114.866 711.13 113.639 711.13ZM113.639 708.231C114.68 708.231 115.51 707.884 116.13 707.19C116.762 706.496 117.078 705.579 117.078 704.439C117.078 703.287 116.762 702.37 116.13 701.689C115.51 700.995 114.68 700.648 113.639 700.648C112.586 700.648 111.744 700.989 111.112 701.67C110.492 702.352 110.182 703.275 110.182 704.439C110.182 705.592 110.492 706.515 111.112 707.209C111.744 707.89 112.586 708.231 113.639 708.231ZM136.074 711L133.361 706.075H132.599V711H129.421V697.953H134.755C135.783 697.953 136.657 698.133 137.375 698.492C138.106 698.851 138.651 699.347 139.011 699.979C139.37 700.598 139.55 701.292 139.55 702.06C139.55 702.928 139.302 703.702 138.806 704.384C138.323 705.065 137.604 705.548 136.65 705.833L139.661 711H136.074ZM132.599 703.826H134.569C135.151 703.826 135.585 703.684 135.87 703.399C136.167 703.114 136.316 702.711 136.316 702.191C136.316 701.695 136.167 701.305 135.87 701.02C135.585 700.735 135.151 700.592 134.569 700.592H132.599V703.826ZM158.272 697.953V700.499H154.815V711H151.637V700.499H148.18V697.953H158.272ZM178.508 697.953V711H175.33V705.629H170.386V711H167.208V697.953H170.386V703.064H175.33V697.953H178.508ZM202.601 697.953V711H199.423V697.953H202.601ZM223.917 711H220.739L215.424 702.953V711H212.245V697.953H215.424L220.739 706.038V697.953H223.917V711ZM238.45 697.953C239.825 697.953 241.027 698.226 242.056 698.771C243.084 699.316 243.877 700.084 244.434 701.075C245.004 702.054 245.289 703.188 245.289 704.477C245.289 705.753 245.004 706.886 244.434 707.878C243.877 708.869 243.078 709.637 242.037 710.182C241.009 710.727 239.813 711 238.45 711H233.562V697.953H238.45ZM238.246 708.249C239.447 708.249 240.383 707.921 241.052 707.264C241.721 706.608 242.056 705.678 242.056 704.477C242.056 703.275 241.721 702.339 241.052 701.67C240.383 701.001 239.447 700.667 238.246 700.667H236.74V708.249H238.246ZM257.585 697.953V711H254.407V697.953H257.585ZM275.351 708.695H270.482L269.701 711H266.374L271.095 697.953H274.775L279.496 711H276.132L275.351 708.695ZM274.533 706.242L272.916 701.466L271.318 706.242H274.533ZM288.998 697.953H292.251L290.169 702.934H288.032L288.998 697.953ZM306.18 711.13C305.226 711.13 304.371 710.975 303.615 710.665C302.859 710.356 302.252 709.897 301.793 709.29C301.347 708.683 301.112 707.952 301.087 707.097H304.47C304.519 707.58 304.687 707.952 304.972 708.212C305.257 708.46 305.628 708.584 306.087 708.584C306.558 708.584 306.929 708.479 307.202 708.268C307.474 708.045 307.611 707.741 307.611 707.357C307.611 707.035 307.499 706.769 307.276 706.558C307.066 706.347 306.799 706.174 306.477 706.038C306.167 705.901 305.721 705.747 305.139 705.573C304.296 705.313 303.609 705.053 303.076 704.792C302.543 704.532 302.085 704.148 301.701 703.64C301.316 703.132 301.124 702.469 301.124 701.652C301.124 700.437 301.564 699.489 302.444 698.808C303.324 698.114 304.47 697.767 305.882 697.767C307.32 697.767 308.478 698.114 309.358 698.808C310.237 699.489 310.708 700.443 310.77 701.67H307.332C307.307 701.249 307.152 700.921 306.867 700.685C306.582 700.437 306.217 700.313 305.771 700.313C305.387 700.313 305.077 700.419 304.841 700.629C304.606 700.828 304.488 701.119 304.488 701.503C304.488 701.924 304.687 702.252 305.083 702.488C305.48 702.723 306.099 702.977 306.942 703.25C307.784 703.535 308.466 703.807 308.986 704.068C309.519 704.328 309.977 704.706 310.361 705.201C310.745 705.697 310.937 706.335 310.937 707.116C310.937 707.859 310.745 708.534 310.361 709.141C309.99 709.749 309.444 710.232 308.726 710.591C308.007 710.95 307.158 711.13 306.18 711.13ZM340.008 697.953V700.499H334.692V703.25H338.67V705.722H334.692V711H331.514V697.953H340.008ZM357.141 708.695H352.272L351.491 711H348.164L352.885 697.953H356.565L361.286 711H357.922L357.141 708.695ZM356.323 706.242L354.707 701.466L353.108 706.242H356.323ZM374.784 711.13C373.83 711.13 372.975 710.975 372.22 710.665C371.464 710.356 370.857 709.897 370.398 709.29C369.952 708.683 369.717 707.952 369.692 707.097H373.075C373.124 707.58 373.291 707.952 373.576 708.212C373.861 708.46 374.233 708.584 374.691 708.584C375.162 708.584 375.534 708.479 375.807 708.268C376.079 708.045 376.215 707.741 376.215 707.357C376.215 707.035 376.104 706.769 375.881 706.558C375.67 706.347 375.404 706.174 375.082 706.038C374.772 705.901 374.326 705.747 373.744 705.573C372.901 705.313 372.213 705.053 371.681 704.792C371.148 704.532 370.689 704.148 370.305 703.64C369.921 703.132 369.729 702.469 369.729 701.652C369.729 700.437 370.169 699.489 371.049 698.808C371.928 698.114 373.075 697.767 374.487 697.767C375.924 697.767 377.083 698.114 377.962 698.808C378.842 699.489 379.313 700.443 379.375 701.67H375.937C375.912 701.249 375.757 700.921 375.472 700.685C375.187 700.437 374.822 700.313 374.376 700.313C373.991 700.313 373.682 700.419 373.446 700.629C373.211 700.828 373.093 701.119 373.093 701.503C373.093 701.924 373.291 702.252 373.688 702.488C374.084 702.723 374.704 702.977 375.546 703.25C376.389 703.535 377.07 703.807 377.591 704.068C378.124 704.328 378.582 704.706 378.966 705.201C379.35 705.697 379.542 706.335 379.542 707.116C379.542 707.859 379.35 708.534 378.966 709.141C378.594 709.749 378.049 710.232 377.331 710.591C376.612 710.95 375.763 711.13 374.784 711.13ZM398.225 697.953V700.499H394.768V711H391.59V700.499H388.133V697.953H398.225ZM410.339 700.499V703.138H414.595V705.592H410.339V708.454H415.153V711H407.161V697.953H415.153V700.499H410.339ZM429.278 711.13C428.324 711.13 427.469 710.975 426.713 710.665C425.957 710.356 425.35 709.897 424.892 709.29C424.446 708.683 424.21 707.952 424.186 707.097H427.568C427.618 707.58 427.785 707.952 428.07 708.212C428.355 708.46 428.727 708.584 429.185 708.584C429.656 708.584 430.028 708.479 430.3 708.268C430.573 708.045 430.709 707.741 430.709 707.357C430.709 707.035 430.598 706.769 430.375 706.558C430.164 706.347 429.898 706.174 429.575 706.038C429.266 705.901 428.82 705.747 428.237 705.573C427.395 705.313 426.707 705.053 426.174 704.792C425.642 704.532 425.183 704.148 424.799 703.64C424.415 703.132 424.223 702.469 424.223 701.652C424.223 700.437 424.663 699.489 425.542 698.808C426.422 698.114 427.568 697.767 428.981 697.767C430.418 697.767 431.576 698.114 432.456 698.808C433.336 699.489 433.807 700.443 433.869 701.67H430.43C430.406 701.249 430.251 700.921 429.966 700.685C429.681 700.437 429.315 700.313 428.869 700.313C428.485 700.313 428.175 700.419 427.94 700.629C427.705 700.828 427.587 701.119 427.587 701.503C427.587 701.924 427.785 702.252 428.182 702.488C428.578 702.723 429.198 702.977 430.04 703.25C430.883 703.535 431.564 703.807 432.084 704.068C432.617 704.328 433.076 704.706 433.46 705.201C433.844 705.697 434.036 706.335 434.036 707.116C434.036 707.859 433.844 708.534 433.46 709.141C433.088 709.749 432.543 710.232 431.824 710.591C431.106 710.95 430.257 711.13 429.278 711.13ZM452.719 697.953V700.499H449.262V711H446.084V700.499H442.627V697.953H452.719ZM94.8131 727.079C94.5777 726.645 94.2369 726.317 93.7909 726.094C93.3572 725.859 92.843 725.741 92.2483 725.741C91.2199 725.741 90.396 726.082 89.7764 726.763C89.1569 727.432 88.8472 728.33 88.8472 729.458C88.8472 730.66 89.1693 731.601 89.8136 732.283C90.4703 732.952 91.3686 733.287 92.5085 733.287C93.2891 733.287 93.9458 733.088 94.4785 732.692C95.0237 732.295 95.4202 731.725 95.668 730.982H91.635V728.64H98.5487V731.595C98.3133 732.388 97.9107 733.125 97.3407 733.807C96.7831 734.488 96.0707 735.04 95.2034 735.461C94.3361 735.882 93.3572 736.093 92.2669 736.093C90.9783 736.093 89.826 735.814 88.81 735.257C87.8064 734.687 87.0196 733.9 86.4497 732.896C85.8921 731.893 85.6133 730.747 85.6133 729.458C85.6133 728.169 85.8921 727.023 86.4497 726.02C87.0196 725.004 87.8064 724.217 88.81 723.659C89.8136 723.089 90.9597 722.804 92.2483 722.804C93.8095 722.804 95.1228 723.182 96.1884 723.938C97.2664 724.694 97.9788 725.741 98.3257 727.079H94.8131ZM114.304 736L111.59 731.075H110.828V736H107.65V722.953H112.984C114.013 722.953 114.886 723.133 115.605 723.492C116.336 723.851 116.881 724.347 117.24 724.979C117.6 725.598 117.779 726.292 117.779 727.06C117.779 727.928 117.532 728.702 117.036 729.384C116.553 730.065 115.834 730.548 114.88 730.833L117.891 736H114.304ZM110.828 728.826H112.799C113.381 728.826 113.815 728.684 114.099 728.399C114.397 728.114 114.546 727.711 114.546 727.191C114.546 726.695 114.397 726.305 114.099 726.02C113.815 725.735 113.381 725.592 112.799 725.592H110.828V728.826ZM133.286 736.13C132.059 736.13 130.932 735.845 129.903 735.275C128.887 734.705 128.076 733.912 127.469 732.896C126.874 731.868 126.577 730.716 126.577 729.439C126.577 728.163 126.874 727.017 127.469 726.001C128.076 724.985 128.887 724.192 129.903 723.622C130.932 723.052 132.059 722.767 133.286 722.767C134.513 722.767 135.634 723.052 136.65 723.622C137.678 724.192 138.484 724.985 139.066 726.001C139.661 727.017 139.958 728.163 139.958 729.439C139.958 730.716 139.661 731.868 139.066 732.896C138.471 733.912 137.666 734.705 136.65 735.275C135.634 735.845 134.513 736.13 133.286 736.13ZM133.286 733.231C134.327 733.231 135.157 732.884 135.776 732.19C136.408 731.496 136.724 730.579 136.724 729.439C136.724 728.287 136.408 727.37 135.776 726.689C135.157 725.995 134.327 725.648 133.286 725.648C132.233 725.648 131.39 725.989 130.758 726.67C130.139 727.352 129.829 728.275 129.829 729.439C129.829 730.592 130.139 731.515 130.758 732.209C131.39 732.89 132.233 733.231 133.286 733.231ZM167.021 722.953L163.62 736H159.773L157.691 727.414L155.535 736H151.688L148.38 722.953H151.781L153.658 732.45L155.981 722.953H159.475L161.706 732.45L163.601 722.953H167.021ZM179.134 722.953V736H175.956V722.953H179.134ZM200.45 736H197.272L191.957 727.953V736H188.778V722.953H191.957L197.272 731.038V722.953H200.45V736ZM218.756 727.079C218.52 726.645 218.18 726.317 217.734 726.094C217.3 725.859 216.786 725.741 216.191 725.741C215.163 725.741 214.339 726.082 213.719 726.763C213.1 727.432 212.79 728.33 212.79 729.458C212.79 730.66 213.112 731.601 213.756 732.283C214.413 732.952 215.311 733.287 216.451 733.287C217.232 733.287 217.889 733.088 218.421 732.692C218.966 732.295 219.363 731.725 219.611 730.982H215.578V728.64H222.492V731.595C222.256 732.388 221.853 733.125 221.283 733.807C220.726 734.488 220.013 735.04 219.146 735.461C218.279 735.882 217.3 736.093 216.21 736.093C214.921 736.093 213.769 735.814 212.753 735.257C211.749 734.687 210.962 733.9 210.392 732.896C209.835 731.893 209.556 730.747 209.556 729.458C209.556 728.169 209.835 727.023 210.392 726.02C210.962 725.004 211.749 724.217 212.753 723.659C213.756 723.089 214.902 722.804 216.191 722.804C217.752 722.804 219.066 723.182 220.131 723.938C221.209 724.694 221.922 725.741 222.268 727.079H218.756ZM252.258 722.953V725.499H248.802V736H245.623V725.499H242.167V722.953H252.258ZM264.373 725.499V728.138H268.629V730.592H264.373V733.454H269.186V736H261.195V722.953H269.186V725.499H264.373ZM278.052 729.458C278.052 728.169 278.331 727.023 278.888 726.02C279.446 725.004 280.22 724.217 281.211 723.659C282.215 723.089 283.349 722.804 284.613 722.804C286.161 722.804 287.487 723.213 288.59 724.031C289.693 724.849 290.43 725.964 290.802 727.376H287.307C287.047 726.831 286.676 726.416 286.192 726.131C285.722 725.846 285.183 725.704 284.575 725.704C283.597 725.704 282.804 726.044 282.196 726.726C281.589 727.407 281.286 728.318 281.286 729.458C281.286 730.598 281.589 731.509 282.196 732.19C282.804 732.871 283.597 733.212 284.575 733.212C285.183 733.212 285.722 733.07 286.192 732.785C286.676 732.5 287.047 732.085 287.307 731.54H290.802C290.43 732.952 289.693 734.067 288.59 734.885C287.487 735.69 286.161 736.093 284.613 736.093C283.349 736.093 282.215 735.814 281.211 735.257C280.22 734.687 279.446 733.9 278.888 732.896C278.331 731.893 278.052 730.747 278.052 729.458ZM311.389 722.953V736H308.211V730.629H303.267V736H300.089V722.953H303.267V728.064H308.211V722.953H311.389ZM340.798 722.953V725.499H335.482V728.25H339.46V730.722H335.482V736H332.304V722.953H340.798ZM352.987 725.499V728.138H357.243V730.592H352.987V733.454H357.801V736H349.809V722.953H357.801V725.499H352.987ZM371.926 736.13C370.972 736.13 370.117 735.975 369.361 735.665C368.606 735.356 367.998 734.897 367.54 734.29C367.094 733.683 366.859 732.952 366.834 732.097H370.216C370.266 732.58 370.433 732.952 370.718 733.212C371.003 733.46 371.375 733.584 371.833 733.584C372.304 733.584 372.676 733.479 372.948 733.268C373.221 733.045 373.357 732.741 373.357 732.357C373.357 732.035 373.246 731.769 373.023 731.558C372.812 731.347 372.546 731.174 372.224 731.038C371.914 730.901 371.468 730.747 370.885 730.573C370.043 730.313 369.355 730.053 368.822 729.792C368.29 729.532 367.831 729.148 367.447 728.64C367.063 728.132 366.871 727.469 366.871 726.652C366.871 725.437 367.311 724.489 368.191 723.808C369.07 723.114 370.216 722.767 371.629 722.767C373.066 722.767 374.225 723.114 375.104 723.808C375.984 724.489 376.455 725.443 376.517 726.67H373.078C373.054 726.249 372.899 725.921 372.614 725.685C372.329 725.437 371.963 725.313 371.517 725.313C371.133 725.313 370.823 725.419 370.588 725.629C370.353 725.828 370.235 726.119 370.235 726.503C370.235 726.924 370.433 727.252 370.83 727.488C371.226 727.723 371.846 727.977 372.688 728.25C373.531 728.535 374.212 728.807 374.733 729.068C375.265 729.328 375.724 729.706 376.108 730.201C376.492 730.697 376.684 731.335 376.684 732.116C376.684 732.859 376.492 733.534 376.108 734.141C375.736 734.749 375.191 735.232 374.472 735.591C373.754 735.95 372.905 736.13 371.926 736.13ZM395.367 722.953V725.499H391.91V736H388.732V725.499H385.275V722.953H395.367Z" fill="#D5D5D5"/>
</g>
<path d="M232.443 498.122V333.933H424.609V375.957H296.458V396.97H424.609V434.963H296.458V455.975H424.609V498.122H232.443ZM501.695 333.933L551.782 447.912L601.87 333.933H673.947L589.775 498.122H513.667L429.617 333.933H501.695ZM678.834 498.122V333.933H870.999V375.957H742.848V396.97H870.999V434.963H742.848V455.975H870.999V498.122H678.834ZM1065.24 420.67V333.688H1129.38V497.878H1057.3L969.097 397.581V497.878H905.083V333.688H993.164L1065.24 420.67ZM1291.73 498.122H1227.72V385.975H1151.61V333.933H1367.84V385.975H1291.73V498.122ZM1447.13 387.807C1447.13 395.015 1467.04 395.992 1492.82 397.214C1538.63 399.535 1603.01 402.711 1602.89 443.881C1602.89 490.792 1549.14 501.909 1491.47 501.909C1433.93 501.787 1386.17 494.824 1380.06 443.881H1447.13C1454.46 456.586 1471.44 459.885 1491.47 459.885C1511.39 459.885 1535.82 456.586 1535.82 443.881C1535.82 436.673 1515.91 435.574 1490.13 434.352C1444.32 432.031 1379.94 428.855 1380.06 387.807C1380.06 340.896 1433.81 329.657 1491.47 329.657C1549.01 330.023 1596.78 336.498 1602.89 387.807H1535.82C1528.49 374.858 1511.51 371.804 1491.47 371.804C1471.56 371.804 1447.13 374.736 1447.13 387.807Z" fill="white"/>
<g filter="url(#filter0_d_293_2)">
<g filter="url(#filter1_bdii_293_2)">
<path d="M1780.79 650.032C1780.78 650.038 1780.78 650.044 1780.78 650.05V727.406C1780.78 728.21 1780.46 728.981 1779.89 729.542L1738.02 771.412C1737.45 771.982 1736.68 772.3 1735.89 772.3H1650.97C1648.27 772.3 1646.92 769.042 1648.83 767.132L1768.08 647.888C1768.65 647.318 1769.42 647 1770.21 647H1777.77C1779.43 647 1780.79 648.352 1780.79 650.014C1780.79 650.02 1780.79 650.026 1780.79 650.032V650.032Z" fill="url(#paint0_linear_293_2)"/>
<path d="M1779.62 729.261L1779.62 729.263L1737.75 771.133C1737.25 771.629 1736.58 771.905 1735.89 771.905H1650.97C1648.62 771.905 1647.45 769.073 1649.11 767.411L1768.35 648.167C1768.85 647.671 1769.52 647.395 1770.21 647.395H1777.77C1779.2 647.395 1780.37 648.545 1780.4 649.968C1780.39 649.995 1780.39 650.022 1780.39 650.05V727.406C1780.39 728.107 1780.11 728.775 1779.62 729.261Z" stroke="url(#paint1_linear_293_2)" stroke-width="0.789059"/>
<path d="M1779.62 729.261L1779.62 729.263L1737.75 771.133C1737.25 771.629 1736.58 771.905 1735.89 771.905H1650.97C1648.62 771.905 1647.45 769.073 1649.11 767.411L1768.35 648.167C1768.85 647.671 1769.52 647.395 1770.21 647.395H1777.77C1779.2 647.395 1780.37 648.545 1780.4 649.968C1780.39 649.995 1780.39 650.022 1780.39 650.05V727.406C1780.39 728.107 1780.11 728.775 1779.62 729.261Z" stroke="url(#paint2_radial_293_2)" stroke-opacity="0.2" stroke-width="0.789059"/>
<path d="M1779.62 729.261L1779.62 729.263L1737.75 771.133C1737.25 771.629 1736.58 771.905 1735.89 771.905H1650.97C1648.62 771.905 1647.45 769.073 1649.11 767.411L1768.35 648.167C1768.85 647.671 1769.52 647.395 1770.21 647.395H1777.77C1779.2 647.395 1780.37 648.545 1780.4 649.968C1780.39 649.995 1780.39 650.022 1780.39 650.05V727.406C1780.39 728.107 1780.11 728.775 1779.62 729.261Z" stroke="url(#paint3_radial_293_2)" stroke-opacity="0.2" stroke-width="0.789059"/>
</g>
<g filter="url(#filter2_bdii_293_2)">
<path d="M268.773 21.0055C268.775 21.0075 268.773 21.011 268.77 21.011H86.2841C85.7001 21.011 85.1382 21.2093 84.6754 21.5619L73.6572 30.1231C73.0182 30.6189 72.6436 31.3791 72.6436 32.1835V84.5418C72.6436 85.236 72.3681 85.8971 71.8723 86.3929L62.7713 95.5049C62.2755 96.0008 62 96.6619 62 97.356V192.454C62 193.897 63.1679 195.065 64.6113 195.065H83.0668C83.7609 195.065 84.422 195.341 84.9178 195.837L97.4675 208.397C97.9523 208.893 98.2278 209.554 98.2278 210.248V284.456C98.2278 285.899 99.3957 287.067 100.839 287.067H111.163C111.857 287.067 112.518 286.792 113.014 286.296L173.493 225.817C173.989 225.321 174.264 224.66 174.264 223.966V143.258C174.264 142.564 174.54 141.903 175.036 141.407L207.539 108.903C208.035 108.407 208.696 108.132 209.39 108.132H279.389C280.832 108.132 282 106.964 282 105.52V34.2328C282 33.5387 281.725 32.8776 281.229 32.3818L270.618 21.7713C270.124 21.2773 269.466 21.0021 268.775 21C268.772 21 268.771 21.0035 268.773 21.0055V21.0055ZM76.5109 190.118C72.2469 190.118 68.7982 186.669 68.7982 182.405C68.7982 178.141 72.2469 174.693 76.5109 174.693C80.775 174.693 84.2237 178.141 84.2237 182.405C84.2237 186.669 80.775 190.118 76.5109 190.118ZM76.5109 108.584C72.2469 108.584 68.7982 105.135 68.7982 100.871C68.7982 96.6068 72.2469 93.1581 76.5109 93.1581C80.775 93.1581 84.2237 96.6068 84.2237 100.871C84.2237 105.135 80.775 108.584 76.5109 108.584ZM267.125 44.6781C262.861 44.6781 259.413 41.2294 259.413 36.9653C259.413 32.7013 262.861 29.2526 267.125 29.2526C271.389 29.2526 274.838 32.7013 274.838 36.9653C274.838 41.2294 271.389 44.6781 267.125 44.6781Z" fill="url(#paint4_linear_293_2)"/>
<path d="M268.77 21.53C268.804 21.53 268.837 21.5271 268.868 21.5214C269.386 21.5463 269.876 21.7629 270.251 22.1383L280.862 32.7488C281.261 33.1484 281.481 33.6779 281.481 34.2328V105.52C281.481 106.677 280.545 107.613 279.389 107.613H209.39C208.557 107.613 207.764 107.944 207.172 108.536L174.669 141.04C174.076 141.632 173.745 142.424 173.745 143.258V223.966C173.745 224.521 173.526 225.05 173.126 225.45L112.647 285.929C112.248 286.328 111.718 286.548 111.163 286.548H100.839C99.6823 286.548 98.7468 285.613 98.7468 284.456V210.248C98.7468 209.416 98.4161 208.625 97.8386 208.034L97.8347 208.03L85.285 195.47L85.2848 195.47C84.6928 194.877 83.9001 194.546 83.0668 194.546H64.6113C63.4546 194.546 62.519 193.611 62.519 192.454V97.356C62.519 96.8011 62.7387 96.2715 63.1383 95.8719L63.1385 95.8717L72.2393 86.7599C72.2394 86.7598 72.2394 86.7598 72.2395 86.7597C72.8314 86.1677 73.1626 85.3751 73.1626 84.5418V32.1835C73.1626 31.541 73.4619 30.9315 73.9754 30.5331L73.9757 30.5329L84.99 21.9748C84.9906 21.9743 84.9912 21.9738 84.9918 21.9733C85.3678 21.6875 85.8195 21.53 86.2841 21.53H268.77ZM68.2792 182.405C68.2792 186.956 71.9603 190.637 76.5109 190.637C81.0616 190.637 84.7427 186.956 84.7427 182.405C84.7427 177.855 81.0616 174.174 76.5109 174.174C71.9603 174.174 68.2792 177.855 68.2792 182.405ZM68.2792 100.871C68.2792 105.421 71.9603 109.103 76.5109 109.103C81.0616 109.103 84.7427 105.421 84.7427 100.871C84.7427 96.3201 81.0616 92.6391 76.5109 92.6391C71.9603 92.6391 68.2792 96.3201 68.2792 100.871ZM258.894 36.9653C258.894 41.516 262.575 45.1971 267.125 45.1971C271.676 45.1971 275.357 41.516 275.357 36.9653C275.357 32.4147 271.676 28.7336 267.125 28.7336C262.575 28.7336 258.894 32.4147 258.894 36.9653Z" stroke="url(#paint5_linear_293_2)" stroke-width="1.03801"/>
<path d="M268.77 21.53C268.804 21.53 268.837 21.5271 268.868 21.5214C269.386 21.5463 269.876 21.7629 270.251 22.1383L280.862 32.7488C281.261 33.1484 281.481 33.6779 281.481 34.2328V105.52C281.481 106.677 280.545 107.613 279.389 107.613H209.39C208.557 107.613 207.764 107.944 207.172 108.536L174.669 141.04C174.076 141.632 173.745 142.424 173.745 143.258V223.966C173.745 224.521 173.526 225.05 173.126 225.45L112.647 285.929C112.248 286.328 111.718 286.548 111.163 286.548H100.839C99.6823 286.548 98.7468 285.613 98.7468 284.456V210.248C98.7468 209.416 98.4161 208.625 97.8386 208.034L97.8347 208.03L85.285 195.47L85.2848 195.47C84.6928 194.877 83.9001 194.546 83.0668 194.546H64.6113C63.4546 194.546 62.519 193.611 62.519 192.454V97.356C62.519 96.8011 62.7387 96.2715 63.1383 95.8719L63.1385 95.8717L72.2393 86.7599C72.2394 86.7598 72.2394 86.7598 72.2395 86.7597C72.8314 86.1677 73.1626 85.3751 73.1626 84.5418V32.1835C73.1626 31.541 73.4619 30.9315 73.9754 30.5331L73.9757 30.5329L84.99 21.9748C84.9906 21.9743 84.9912 21.9738 84.9918 21.9733C85.3678 21.6875 85.8195 21.53 86.2841 21.53H268.77ZM68.2792 182.405C68.2792 186.956 71.9603 190.637 76.5109 190.637C81.0616 190.637 84.7427 186.956 84.7427 182.405C84.7427 177.855 81.0616 174.174 76.5109 174.174C71.9603 174.174 68.2792 177.855 68.2792 182.405ZM68.2792 100.871C68.2792 105.421 71.9603 109.103 76.5109 109.103C81.0616 109.103 84.7427 105.421 84.7427 100.871C84.7427 96.3201 81.0616 92.6391 76.5109 92.6391C71.9603 92.6391 68.2792 96.3201 68.2792 100.871ZM258.894 36.9653C258.894 41.516 262.575 45.1971 267.125 45.1971C271.676 45.1971 275.357 41.516 275.357 36.9653C275.357 32.4147 271.676 28.7336 267.125 28.7336C262.575 28.7336 258.894 32.4147 258.894 36.9653Z" stroke="url(#paint6_radial_293_2)" stroke-opacity="0.2" stroke-width="1.03801"/>
<path d="M268.77 21.53C268.804 21.53 268.837 21.5271 268.868 21.5214C269.386 21.5463 269.876 21.7629 270.251 22.1383L280.862 32.7488C281.261 33.1484 281.481 33.6779 281.481 34.2328V105.52C281.481 106.677 280.545 107.613 279.389 107.613H209.39C208.557 107.613 207.764 107.944 207.172 108.536L174.669 141.04C174.076 141.632 173.745 142.424 173.745 143.258V223.966C173.745 224.521 173.526 225.05 173.126 225.45L112.647 285.929C112.248 286.328 111.718 286.548 111.163 286.548H100.839C99.6823 286.548 98.7468 285.613 98.7468 284.456V210.248C98.7468 209.416 98.4161 208.625 97.8386 208.034L97.8347 208.03L85.285 195.47L85.2848 195.47C84.6928 194.877 83.9001 194.546 83.0668 194.546H64.6113C63.4546 194.546 62.519 193.611 62.519 192.454V97.356C62.519 96.8011 62.7387 96.2715 63.1383 95.8719L63.1385 95.8717L72.2393 86.7599C72.2394 86.7598 72.2394 86.7598 72.2395 86.7597C72.8314 86.1677 73.1626 85.3751 73.1626 84.5418V32.1835C73.1626 31.541 73.4619 30.9315 73.9754 30.5331L73.9757 30.5329L84.99 21.9748C84.9906 21.9743 84.9912 21.9738 84.9918 21.9733C85.3678 21.6875 85.8195 21.53 86.2841 21.53H268.77ZM68.2792 182.405C68.2792 186.956 71.9603 190.637 76.5109 190.637C81.0616 190.637 84.7427 186.956 84.7427 182.405C84.7427 177.855 81.0616 174.174 76.5109 174.174C71.9603 174.174 68.2792 177.855 68.2792 182.405ZM68.2792 100.871C68.2792 105.421 71.9603 109.103 76.5109 109.103C81.0616 109.103 84.7427 105.421 84.7427 100.871C84.7427 96.3201 81.0616 92.6391 76.5109 92.6391C71.9603 92.6391 68.2792 96.3201 68.2792 100.871ZM258.894 36.9653C258.894 41.516 262.575 45.1971 267.125 45.1971C271.676 45.1971 275.357 41.516 275.357 36.9653C275.357 32.4147 271.676 28.7336 267.125 28.7336C262.575 28.7336 258.894 32.4147 258.894 36.9653Z" stroke="url(#paint7_radial_293_2)" stroke-opacity="0.2" stroke-width="1.03801"/>
</g>
</g>
<defs>
<filter id="filter0_d_293_2" x="0.921906" y="0.640636" width="1840.95" height="873.456" filterUnits="userSpaceOnUse" color-interpolation-filters="sRGB">
<feFlood flood-opacity="0" result="BackgroundImageFix"/>
<feColorMatrix in="SourceAlpha" type="matrix" values="0 0 0 0 0 0 0 0 0 0 0 0 0 0 0 0 0 0 127 0" result="hardAlpha"/>
<feOffset dy="40.7187"/>
<feGaussianBlur stdDeviation="30.539"/>
<feComposite in2="hardAlpha" operator="out"/>
<feColorMatrix type="matrix" values="0 0 0 0 0 0 0 0 0 0 0 0 0 0 0 0 0 0 1 0"/>
<feBlend mode="normal" in2="BackgroundImageFix" result="effect1_dropShadow_293_2"/>
<feBlend mode="normal" in="SourceGraphic" in2="effect1_dropShadow_293_2" result="shape"/>
</filter>
<filter id="filter1_bdii_293_2" x="1640.05" y="639.109" width="148.635" height="156.862" filterUnits="userSpaceOnUse" color-interpolation-filters="sRGB">
<feFlood flood-opacity="0" result="BackgroundImageFix"/>
<feGaussianBlur in="BackgroundImageFix" stdDeviation="1.57812"/>
<feComposite in2="SourceAlpha" operator="in" result="effect1_backgroundBlur_293_2"/>
<feColorMatrix in="SourceAlpha" type="matrix" values="0 0 0 0 0 0 0 0 0 0 0 0 0 0 0 0 0 0 127 0" result="hardAlpha"/>
<feOffset dy="15.7812"/>
<feGaussianBlur stdDeviation="3.9453"/>
<feColorMatrix type="matrix" values="0 0 0 0 0 0 0 0 0 0 0 0 0 0 0 0 0 0 0.4 0"/>
<feBlend mode="normal" in2="effect1_backgroundBlur_293_2" result="effect2_dropShadow_293_2"/>
<feBlend mode="normal" in="SourceGraphic" in2="effect2_dropShadow_293_2" result="shape"/>
<feColorMatrix in="SourceAlpha" type="matrix" values="0 0 0 0 0 0 0 0 0 0 0 0 0 0 0 0 0 0 127 0" result="hardAlpha"/>
<feOffset dx="7.89059" dy="7.89059"/>
<feGaussianBlur stdDeviation="7.89059"/>
<feComposite in2="hardAlpha" operator="arithmetic" k2="-1" k3="1"/>
<feColorMatrix type="matrix" values="0 0 0 0 0 0 0 0 0 0 0 0 0 0 0 0 0 0 0.2 0"/>
<feBlend mode="normal" in2="shape" result="effect3_innerShadow_293_2"/>
<feColorMatrix in="SourceAlpha" type="matrix" values="0 0 0 0 0 0 0 0 0 0 0 0 0 0 0 0 0 0 127 0" result="hardAlpha"/>
<feOffset dx="-7.89059" dy="-7.89059"/>
<feGaussianBlur stdDeviation="5.91794"/>
<feComposite in2="hardAlpha" operator="arithmetic" k2="-1" k3="1"/>
<feColorMatrix type="matrix" values="0 0 0 0 0 0 0 0 0 0 0 0 0 0 0 0 0 0 0.05 0"/>
<feBlend mode="normal" in2="effect3_innerShadow_293_2" result="effect4_innerShadow_293_2"/>
</filter>
<filter id="filter2_bdii_293_2" x="51.6199" y="10.6199" width="240.76" height="307.587" filterUnits="userSpaceOnUse" color-interpolation-filters="sRGB">
<feFlood flood-opacity="0" result="BackgroundImageFix"/>
<feGaussianBlur in="BackgroundImageFix" stdDeviation="2.07601"/>
<feComposite in2="SourceAlpha" operator="in" result="effect1_backgroundBlur_293_2"/>
<feColorMatrix in="SourceAlpha" type="matrix" values="0 0 0 0 0 0 0 0 0 0 0 0 0 0 0 0 0 0 127 0" result="hardAlpha"/>
<feOffset dy="20.7601"/>
<feGaussianBlur stdDeviation="5.19003"/>
<feColorMatrix type="matrix" values="0 0 0 0 0 0 0 0 0 0 0 0 0 0 0 0 0 0 0.4 0"/>
<feBlend mode="normal" in2="effect1_backgroundBlur_293_2" result="effect2_dropShadow_293_2"/>
<feBlend mode="normal" in="SourceGraphic" in2="effect2_dropShadow_293_2" result="shape"/>
<feColorMatrix in="SourceAlpha" type="matrix" values="0 0 0 0 0 0 0 0 0 0 0 0 0 0 0 0 0 0 127 0" result="hardAlpha"/>
<feOffset dx="10.3801" dy="10.3801"/>
<feGaussianBlur stdDeviation="10.3801"/>
<feComposite in2="hardAlpha" operator="arithmetic" k2="-1" k3="1"/>
<feColorMatrix type="matrix" values="0 0 0 0 0 0 0 0 0 0 0 0 0 0 0 0 0 0 0.2 0"/>
<feBlend mode="normal" in2="shape" result="effect3_innerShadow_293_2"/>
<feColorMatrix in="SourceAlpha" type="matrix" values="0 0 0 0 0 0 0 0 0 0 0 0 0 0 0 0 0 0 127 0" result="hardAlpha"/>
<feOffset dx="-10.3801" dy="-10.3801"/>
<feGaussianBlur stdDeviation="7.78505"/>
<feComposite in2="hardAlpha" operator="arithmetic" k2="-1" k3="1"/>
<feColorMatrix type="matrix" values="0 0 0 0 0 0 0 0 0 0 0 0 0 0 0 0 0 0 0.05 0"/>
<feBlend mode="normal" in2="effect3_innerShadow_293_2" result="effect4_innerShadow_293_2"/>
</filter>
<linearGradient id="paint0_linear_293_2" x1="1647.94" y1="640.825" x2="1728.1" y2="781.184" gradientUnits="userSpaceOnUse">
<stop stop-color="#F7F7F7" stop-opacity="0.1"/>
<stop offset="1" stop-color="#F7F7F7" stop-opacity="0.03"/>
</linearGradient>
<linearGradient id="paint1_linear_293_2" x1="1647.94" y1="641.085" x2="1753.23" y2="798.507" gradientUnits="userSpaceOnUse">
<stop stop-color="white" stop-opacity="0.5"/>
<stop offset="1" stop-color="white" stop-opacity="0"/>
</linearGradient>
<radialGradient id="paint2_radial_293_2" cx="0" cy="0" r="1" gradientUnits="userSpaceOnUse" gradientTransform="translate(1751.07 764.579) rotate(-129.871) scale(147.385 131.106)">
<stop stop-opacity="0.48"/>
<stop offset="1" stop-opacity="0"/>
</radialGradient>
<radialGradient id="paint3_radial_293_2" cx="0" cy="0" r="1" gradientUnits="userSpaceOnUse" gradientTransform="translate(1781.01 656.132) rotate(143.57) scale(185.241 146.587)">
<stop stop-opacity="0.26"/>
<stop offset="1" stop-opacity="0"/>
</radialGradient>
<linearGradient id="paint4_linear_293_2" x1="62" y1="7.88837" x2="250.411" y2="265.163" gradientUnits="userSpaceOnUse">
<stop stop-color="#F7F7F7" stop-opacity="0.1"/>
<stop offset="1" stop-color="#F7F7F7" stop-opacity="0.03"/>
</linearGradient>
<linearGradient id="paint5_linear_293_2" x1="62" y1="8.43928" x2="301.095" y2="287.199" gradientUnits="userSpaceOnUse">
<stop stop-color="white" stop-opacity="0.5"/>
<stop offset="1" stop-color="white" stop-opacity="0"/>
</linearGradient>
<radialGradient id="paint6_radial_293_2" cx="0" cy="0" r="1" gradientUnits="userSpaceOnUse" gradientTransform="translate(232.782 270.672) rotate(-123.079) scale(286.659 237.027)">
<stop stop-opacity="0.48"/>
<stop offset="1" stop-opacity="0"/>
</radialGradient>
<radialGradient id="paint7_radial_293_2" cx="0" cy="0" r="1" gradientUnits="userSpaceOnUse" gradientTransform="translate(282.364 40.392) rotate(136.577) scale(339.818 280.981)">
<stop stop-opacity="0.26"/>
<stop offset="1" stop-opacity="0"/>
</radialGradient>
</defs>
</svg>
