<svg width="193" height="29" viewBox="0 0 193 29" fill="none" xmlns="http://www.w3.org/2000/svg">
<path d="M7.48438 21.9844H14.1406V28.125H0.3125V0.46875H14.1406V6.60938H7.48438V21.9844ZM30.4062 24.9844V3.98438H40.6562L48.8438 14.4844L57.0469 3.98438H67.2812V24.9844H59.0938V13.7812L50.8906 24.9844H46.7969L38.5938 13.7812V24.9844H30.4062ZM72.0625 25.0156V4.01562H96.6406V9.39062H80.25V12.0781H96.6406V16.9375H80.25V19.625H96.6406V25.0156H72.0625ZM121.484 15.1094V3.98438H129.688V24.9844H120.469L109.188 12.1562V24.9844H101V3.98438H112.266L121.484 15.1094ZM154.016 14.75V3.98438H162.219V15.2656C162.229 16.8073 161.984 18.1771 161.484 19.375C160.984 20.5625 160.307 21.5365 159.453 22.2969C158.609 23.0573 157.562 23.6823 156.312 24.1719C155.073 24.6615 153.766 25.0052 152.391 25.2031C151.026 25.401 149.521 25.5 147.875 25.5C146.229 25.5 144.719 25.401 143.344 25.2031C141.979 25.0052 140.672 24.6615 139.422 24.1719C138.182 23.6823 137.135 23.0573 136.281 22.2969C135.438 21.5365 134.766 20.5625 134.266 19.375C133.766 18.1771 133.521 16.8073 133.531 15.2656V3.98438H141.719V14.75C141.708 15.4167 141.812 16 142.031 16.5C142.25 16.9896 142.536 17.3802 142.891 17.6719C143.245 17.9635 143.698 18.1979 144.25 18.375C144.812 18.5521 145.37 18.6719 145.922 18.7344C146.484 18.7969 147.135 18.8333 147.875 18.8438C148.615 18.8333 149.26 18.7969 149.812 18.7344C150.375 18.6719 150.932 18.5521 151.484 18.375C152.036 18.1979 152.49 17.9635 152.844 17.6719C153.198 17.3802 153.484 16.9896 153.703 16.5C153.922 16 154.026 15.4167 154.016 14.75ZM178.469 28.125V21.9844H185.125V6.60938H178.469V0.46875H192.297V28.125H178.469Z" fill="white"/>
</svg>
