<svg width="556" height="558" viewBox="0 0 556 558" fill="none" xmlns="http://www.w3.org/2000/svg">
<g style="mix-blend-mode:overlay">
<path d="M182.584 27.6543H280.773L289.66 19.3257H390.009V27.6543H509.065V90.3253H520.7V143.84L513.189 150.88V318.969H520.7V160.589L534.741 147.429V64.4655L526.199 56.459V10.9972H407.782L396.146 0.0458984H274.637L251.316 21.9025H182.584V27.6543Z" fill="#181818"/>
</g>
<g style="mix-blend-mode:overlay">
<path d="M30.0458 208.259H182.78L207.327 185.252H54.5933L30.0458 208.259Z" fill="#181818"/>
</g>
<g filter="url(#filter0_bdii_233_2)">
<path d="M171.39 9.06475V6.44195C171.39 2.89888 168.347 0 164.517 0H76.441C72.6607 0 69.5677 2.85287 69.5677 6.44195V9.06475C69.5677 12.6078 66.5238 15.5067 62.6944 15.5067H25.8733C22.093 15.5067 19 18.3596 19 21.9487V494.558C19 498.101 22.0439 501 25.8733 501H530.127C533.907 501 537 498.147 537 494.558V21.9026C537 18.3596 533.956 15.4607 530.127 15.4607H178.264C174.483 15.4607 171.39 12.6078 171.39 9.01874V9.06475Z" fill="url(#paint0_linear_233_2)"/>
<path d="M170.455 6.44195V9.01874V9.06475H170.455C170.481 13.2087 174.045 16.3966 178.264 16.3966H530.127C533.493 16.3966 536.064 18.9284 536.064 21.9026V494.558C536.064 497.57 533.453 500.064 530.127 500.064H25.8733C22.5072 500.064 19.9359 497.532 19.9359 494.558V21.9487C19.9359 18.9368 22.5473 16.4426 25.8733 16.4426H62.6944C66.9871 16.4426 70.5036 13.1767 70.5036 9.06475V6.44195C70.5036 3.43014 73.115 0.935871 76.441 0.935871H164.517C167.883 0.935871 170.455 3.46774 170.455 6.44195Z" stroke="url(#paint1_linear_233_2)" stroke-width="1.87174"/>
<path d="M170.455 6.44195V9.01874V9.06475H170.455C170.481 13.2087 174.045 16.3966 178.264 16.3966H530.127C533.493 16.3966 536.064 18.9284 536.064 21.9026V494.558C536.064 497.57 533.453 500.064 530.127 500.064H25.8733C22.5072 500.064 19.9359 497.532 19.9359 494.558V21.9487C19.9359 18.9368 22.5473 16.4426 25.8733 16.4426H62.6944C66.9871 16.4426 70.5036 13.1767 70.5036 9.06475V6.44195C70.5036 3.43014 73.115 0.935871 76.441 0.935871H164.517C167.883 0.935871 170.455 3.46774 170.455 6.44195Z" stroke="url(#paint2_radial_233_2)" stroke-opacity="0.2" stroke-width="1.87174"/>
<path d="M170.455 6.44195V9.01874V9.06475H170.455C170.481 13.2087 174.045 16.3966 178.264 16.3966H530.127C533.493 16.3966 536.064 18.9284 536.064 21.9026V494.558C536.064 497.57 533.453 500.064 530.127 500.064H25.8733C22.5072 500.064 19.9359 497.532 19.9359 494.558V21.9487C19.9359 18.9368 22.5473 16.4426 25.8733 16.4426H62.6944C66.9871 16.4426 70.5036 13.1767 70.5036 9.06475V6.44195C70.5036 3.43014 73.115 0.935871 76.441 0.935871H164.517C167.883 0.935871 170.455 3.46774 170.455 6.44195Z" stroke="url(#paint3_radial_233_2)" stroke-opacity="0.2" stroke-width="1.87174"/>
</g>
<defs>
<filter id="filter0_bdii_233_2" x="0.282587" y="-18.7174" width="555.435" height="575.87" filterUnits="userSpaceOnUse" color-interpolation-filters="sRGB">
<feFlood flood-opacity="0" result="BackgroundImageFix"/>
<feGaussianBlur in="BackgroundImageFix" stdDeviation="3.74348"/>
<feComposite in2="SourceAlpha" operator="in" result="effect1_backgroundBlur_233_2"/>
<feColorMatrix in="SourceAlpha" type="matrix" values="0 0 0 0 0 0 0 0 0 0 0 0 0 0 0 0 0 0 127 0" result="hardAlpha"/>
<feOffset dy="37.4348"/>
<feGaussianBlur stdDeviation="9.35871"/>
<feColorMatrix type="matrix" values="0 0 0 0 0 0 0 0 0 0 0 0 0 0 0 0 0 0 0.4 0"/>
<feBlend mode="normal" in2="effect1_backgroundBlur_233_2" result="effect2_dropShadow_233_2"/>
<feBlend mode="normal" in="SourceGraphic" in2="effect2_dropShadow_233_2" result="shape"/>
<feColorMatrix in="SourceAlpha" type="matrix" values="0 0 0 0 0 0 0 0 0 0 0 0 0 0 0 0 0 0 127 0" result="hardAlpha"/>
<feOffset dx="18.7174" dy="18.7174"/>
<feGaussianBlur stdDeviation="18.7174"/>
<feComposite in2="hardAlpha" operator="arithmetic" k2="-1" k3="1"/>
<feColorMatrix type="matrix" values="0 0 0 0 0 0 0 0 0 0 0 0 0 0 0 0 0 0 0.2 0"/>
<feBlend mode="normal" in2="shape" result="effect3_innerShadow_233_2"/>
<feColorMatrix in="SourceAlpha" type="matrix" values="0 0 0 0 0 0 0 0 0 0 0 0 0 0 0 0 0 0 127 0" result="hardAlpha"/>
<feOffset dx="-18.7174" dy="-18.7174"/>
<feGaussianBlur stdDeviation="14.0381"/>
<feComposite in2="hardAlpha" operator="arithmetic" k2="-1" k3="1"/>
<feColorMatrix type="matrix" values="0 0 0 0 0 0 0 0 0 0 0 0 0 0 0 0 0 0 0.05 0"/>
<feBlend mode="normal" in2="effect3_innerShadow_233_2" result="effect4_innerShadow_233_2"/>
</filter>
<linearGradient id="paint0_linear_233_2" x1="19" y1="-24.689" x2="343.56" y2="529.485" gradientUnits="userSpaceOnUse">
<stop stop-color="#F7F7F7" stop-opacity="0.1"/>
<stop offset="1" stop-color="#F7F7F7" stop-opacity="0.03"/>
</linearGradient>
<linearGradient id="paint1_linear_233_2" x1="19" y1="-23.6516" x2="443.968" y2="595.901" gradientUnits="userSpaceOnUse">
<stop stop-color="white" stop-opacity="0.5"/>
<stop offset="1" stop-color="white" stop-opacity="0"/>
</linearGradient>
<radialGradient id="paint2_radial_233_2" cx="0" cy="0" r="1" gradientUnits="userSpaceOnUse" gradientTransform="translate(421.113 470.128) rotate(-129.163) scale(583.329 516.421)">
<stop stop-opacity="0.48"/>
<stop offset="1" stop-opacity="0"/>
</radialGradient>
<radialGradient id="paint3_radial_233_2" cx="0" cy="0" r="1" gradientUnits="userSpaceOnUse" gradientTransform="translate(537.856 36.5148) rotate(142.879) scale(728.805 580.852)">
<stop stop-opacity="0.26"/>
<stop offset="1" stop-opacity="0"/>
</radialGradient>
</defs>
</svg>
